# Blender v2.76 (sub 0) OBJ File: ''
# www.blender.org
mtllib rawr.mtl
v 1.000000 -1.000000 -1.000000
v 1.000000 -1.000000 1.000000
v -1.000000 -1.000000 1.000000
v -1.000000 -1.000000 -1.000000
v 1.000000 1.000000 -0.999999
v 0.999999 1.000000 1.000001
v -1.000000 1.000000 1.000000
v -1.000000 1.000000 -1.000000
v 1.000000 -1.000000 -0.714286
v 1.000000 -1.000000 -0.428571
v 1.000000 -1.000000 -0.142857
v 1.000000 -1.000000 0.142857
v 1.000000 -1.000000 0.428571
v 1.000000 -1.000000 0.714286
v 1.000000 -0.714286 -1.000000
v 1.000000 -0.428571 -1.000000
v 1.000000 -0.142857 -1.000000
v 1.000000 0.142857 -1.000000
v 1.000000 0.428571 -1.000000
v 1.000000 0.714286 -1.000000
v 1.000000 -0.714286 1.000000
v 1.000000 -0.428571 1.000000
v 1.000000 -0.142857 1.000000
v 1.000000 0.142857 1.000000
v 1.000000 0.428571 1.000000
v 0.999999 0.714286 1.000000
v 1.000000 1.000000 -0.714285
v 1.000000 1.000000 -0.428571
v 1.000000 1.000000 -0.142857
v 1.000000 1.000000 0.142858
v 1.000000 1.000000 0.428572
v 1.000000 1.000000 0.714286
v 1.000000 -0.714286 -0.714286
v 1.000000 -0.714286 -0.428571
v 1.000000 -0.714286 -0.142857
v 1.000000 -0.714286 0.142857
v 1.000000 -0.714286 0.428572
v 1.000000 -0.714286 0.714286
v 1.000000 -0.428571 -0.714285
v 1.000000 -0.428571 -0.428571
v 1.000000 -0.428571 -0.142857
v 1.000000 -0.428571 0.142857
v 1.000000 -0.428571 0.428572
v 1.000000 -0.428571 0.714286
v 1.000000 -0.142857 -0.714285
v 1.000000 -0.142857 -0.428571
v 1.000000 -0.142857 -0.142857
v 1.000000 -0.142857 0.142857
v 1.000000 -0.142857 0.428572
v 1.000000 -0.142857 0.714286
v 1.000000 0.142857 -0.714285
v 1.000000 0.142857 -0.428571
v 1.000000 0.142857 -0.142857
v 1.000000 0.142857 0.142858
v 1.000000 0.142857 0.428572
v 1.000000 0.142857 0.714286
v 1.000000 0.428571 -0.714285
v 1.286139 0.428571 -0.428571
v 1.286139 0.428571 -0.142857
v 1.000000 0.428571 0.142858
v 1.000000 0.428571 0.428572
v 1.000000 0.428571 0.714286
v 1.000000 0.714286 -0.714285
v 1.286140 0.714286 -0.428571
v 1.286139 0.714286 -0.142857
v 1.000000 0.714286 0.142858
v 1.000000 0.714286 0.428572
v 1.000000 0.714286 0.714286
vn 0.000000 -1.000000 0.000000
vn 0.000000 1.000000 0.000000
vn 1.000000 0.000000 0.000000
vn -0.000000 -0.000000 1.000000
vn -1.000000 -0.000000 -0.000000
vn 0.000000 0.000000 -1.000000
vn 0.816100 -0.408700 -0.408700
vn 0.706600 -0.707600 0.000000
vn 0.816100 -0.408700 0.408700
vn 0.706600 -0.000000 -0.707600
vn 0.706600 -0.000000 0.707600
vn 0.816100 0.408700 -0.408700
vn 0.706600 0.707600 0.000000
vn 0.816100 0.408700 0.408700
usemtl Material
s off
f 1//1 9//1 10//1 11//1 12//1 13//1 14//1 2//1 3//1 4//1
f 5//2 8//2 7//2 6//2 32//2 31//2 30//2 29//2 28//2 27//2
f 68//3 32//3 6//3 26//3
f 2//4 21//4 22//4 23//4 24//4 25//4 26//4 6//4 7//4 3//4
f 3//5 7//5 8//5 4//5
f 5//6 20//6 19//6 18//6 17//6 16//6 15//6 1//6 4//6 8//6
f 14//3 38//3 21//3 2//3
f 38//3 44//3 22//3 21//3
f 44//3 50//3 23//3 22//3
f 50//3 56//3 24//3 23//3
f 56//3 62//3 25//3 24//3
f 62//3 68//3 26//3 25//3
f 1//3 15//3 33//3 9//3
f 9//3 33//3 34//3 10//3
f 10//3 34//3 35//3 11//3
f 11//3 35//3 36//3 12//3
f 12//3 36//3 37//3 13//3
f 13//3 37//3 38//3 14//3
f 15//3 16//3 39//3 33//3
f 33//3 39//3 40//3 34//3
f 34//3 40//3 41//3 35//3
f 35//3 41//3 42//3 36//3
f 36//3 42//3 43//3 37//3
f 37//3 43//3 44//3 38//3
f 16//3 17//3 45//3 39//3
f 39//3 45//3 46//3 40//3
f 40//3 46//3 47//3 41//3
f 41//3 47//3 48//3 42//3
f 42//3 48//3 49//3 43//3
f 43//3 49//3 50//3 44//3
f 17//3 18//3 51//3 45//3
f 45//3 51//3 52//3 46//3
f 46//3 52//3 53//3 47//3
f 47//3 53//3 54//3 48//3
f 48//3 54//3 55//3 49//3
f 49//3 55//3 56//3 50//3
f 18//3 19//3 57//3 51//3
f 51//7 57//7 58//7 52//7
f 52//8 58//8 59//8 53//8
f 53//9 59//9 60//9 54//9
f 54//3 60//3 61//3 55//3
f 55//3 61//3 62//3 56//3
f 19//3 20//3 63//3 57//3
f 57//10 63//10 64//10 58//10
f 58//3 64//3 65//3 59//3
f 59//11 65//11 66//11 60//11
f 60//3 66//3 67//3 61//3
f 61//3 67//3 68//3 62//3
f 20//3 5//3 27//3 63//3
f 63//12 27//12 28//12 64//12
f 64//13 28//13 29//13 65//13
f 65//14 29//14 30//14 66//14
f 66//3 30//3 31//3 67//3
f 67//3 31//3 32//3 68//3
